<?xml version="1.0" encoding="utf-8"?>
<!-- Generator: Adobe Illustrator 21.1.0, SVG Export Plug-In . SVG Version: 6.00 Build 0)  -->
<svg version="1.1" id="Layer_1" xmlns="http://www.w3.org/2000/svg" xmlns:xlink="http://www.w3.org/1999/xlink" x="0px" y="0px"
	 viewBox="0 0 1012.4 247.6" style="enable-background:new 0 0 1012.4 247.6;" xml:space="preserve">
<style type="text/css">
	.st0{display:none;fill:#FFFFFF;}
	.st1{fill:none;stroke:#FFFFFF;stroke-width:14.332;}
	.st2{fill:none;stroke:#13FD79;stroke-width:4;}
	.st3{fill:#17FDB9;}
	.st4{fill:url(#SVGID_1_);}
	.st5{fill:url(#SVGID_2_);}
	.st6{fill:url(#SVGID_3_);}
</style>
<circle class="st0" cx="98.8" cy="127" r="42.5"/>
<g>
	<path class="st1" d="M51.9,67.8C48,68.3,44.3,69,41,69.7c-8.5,1.8-11.7,4.7-14.5,3.8c-2-0.7-2.1-6.9-4.7-15.5
		c-3-10.2-6.7-22.8-8.3-28.9C12,23.1,6.1,8.8,7.3,7.7c1.8-1.6,12,0.5,26.9,3c4.9,0.8,10,1.8,15.2,3c14.5,3.5,29,10.6,36.1,13.8
		C121.9,43.7,160,88.2,160,88.2s-15.7-7.9-33.4-13.5c-16.1-5.1-33.9-8.1-42.2-8.2C77.3,66.4,63.6,66.2,51.9,67.8z"/>
	<path class="st1" d="M159.8,88.9c1.4-3.7,2.5-7.2,3.4-10.5c2.4-8.4,1.4-12.5,3.5-14.5c1.6-1.5,7.1,1.4,15.9,3.2
		c10.4,2.2,23.3,4.8,29.4,6.3c6,1.4,21.4,3,21.7,4.6c0.6,2.4-6.2,10.3-15.4,22.3c-3,3.9-6.3,8-9.9,12c-9.9,11.1-23.1,20.5-29.2,25.3
		c-31.5,24.3-88.7,36.9-88.7,36.9s14.4-10.1,27.7-23c12.2-11.8,23.2-26,27.2-33.3C149,112,155.7,100,159.8,88.9z"/>
	<path class="st1" d="M85.7,170.3c2.6,3,5.1,5.7,7.5,8.1c6.2,6.2,10.3,7.2,11.1,10.1c0.5,2.1-4.7,5.5-10.5,12.4
		c-6.9,8.1-15.5,18.1-19.7,22.7c-4.2,4.5-12.9,17.3-14.5,16.8c-2.4-0.7-6.1-10.4-12.2-24.2c-2-4.5-4-9.4-5.7-14.4
		c-5-14.1-6.9-30.1-8.1-37.8C27.5,124.7,44,68.5,44,68.5s1.9,17.5,6.8,35.4c4.4,16.3,11.6,32.8,16.1,39.9
		C70.7,149.7,78,161.3,85.7,170.3z"/>
	<circle class="st2" cx="98.8" cy="111.9" r="32.6"/>
	<circle class="st3" cx="99.3" cy="111.9" r="22.7"/>
	
		<linearGradient id="SVGID_1_" gradientUnits="userSpaceOnUse" x1="98.8509" y1="68.4248" x2="5.3009" y2="161.9749" gradientTransform="matrix(1 0 0 -1 0 269.6242)">
		<stop  offset="0" style="stop-color:#11E1E6"/>
		<stop  offset="1" style="stop-color:#0585C6"/>
	</linearGradient>
	<path class="st4" d="M86,170.4c9.1,10.6,18.5,18.2,18.5,18.2l-44.9,51.8c0,0-10.7-18.3-17.8-38.7c-4.9-14.1-6.8-30.1-8-37.8
		c-6-39.3,10.7-95.5,10.7-95.5s1.9,17.5,6.7,35.4c4.4,16.3,11.5,32.9,15.9,39.9C71.1,149.8,78.3,161.4,86,170.4z"/>
	
		<linearGradient id="SVGID_2_" gradientUnits="userSpaceOnUse" x1="215.0263" y1="209.2995" x2="95.3263" y2="89.5995" gradientTransform="matrix(1 0 0 -1 0 269.6242)">
		<stop  offset="0" style="stop-color:#1DFDB7"/>
		<stop  offset="1" style="stop-color:#0CC431"/>
	</linearGradient>
	<path class="st5" d="M159,89.1c4.9-13.1,7-25,7-25l67,14.2c0,0-10.9,18.2-25.2,34.2c-10,11.1-23.1,20.5-29.2,25.3
		c-31.5,24.2-88.7,36.8-88.7,36.8s14.4-10.1,27.8-23c12.2-11.7,23.2-26,27.2-33.3C148.2,112.2,154.9,100.2,159,89.1z"/>
	
		<linearGradient id="SVGID_3_" gradientUnits="userSpaceOnUse" x1="7.3259" y1="221.6499" x2="160.0259" y2="221.6499" gradientTransform="matrix(1 0 0 -1 0 269.6242)">
		<stop  offset="0" style="stop-color:#022E4E"/>
		<stop  offset="1" style="stop-color:#00101B"/>
	</linearGradient>
	<path class="st6" d="M51.9,67.8c-13.8,1.9-25.3,5.7-25.3,5.7L7.3,7.7c0,0,21.2,1,42.1,6c14.5,3.5,29,10.6,36.1,13.8
		C121.9,43.7,160,88.2,160,88.2s-15.7-7.9-33.4-13.5c-16.1-5.1-33.9-8.1-42.2-8.2C77.3,66.4,63.6,66.2,51.9,67.8z"/>
</g>
<g>
	<path d="M268.8,80.6h19.1l27.2,49.8l9.4,20.2h0.6c-1-9.7-2.4-22.1-2.4-32.7V80.6h17.6V174h-18.9l-27-49.9l-9.5-20h-0.6
		c1,10.2,2.2,21.8,2.2,32.6v37.5h-17.6V80.6z"/>
	<path d="M348,138.8c0-22.9,16.1-37.2,32.9-37.2c19.4,0,29.6,14.3,29.6,33.9c0,3.3-0.3,6.8-1,8.4h-43.4c1.6,11.6,9.1,17.6,19.6,17.6
		c5.9,0,10.8-1.7,15.9-4.9l6.4,11.3c-7,4.8-15.9,7.8-24.8,7.8C363.4,175.9,348,162,348,138.8z M394.6,131.7
		c0-9.5-4.3-15.6-13.4-15.6c-7.5,0-14,5.2-15.4,15.6H394.6z"/>
	<path d="M419.4,147.6v-44.2H438v41.8c0,11,3,14.8,9.9,14.8c5.9,0,9.5-2.5,14.5-8.9v-47.7h18.6v70.7h-15.1l-1.4-10.2h-0.5
		c-6,7.2-12.9,11.9-22.6,11.9C425.9,175.9,419.4,165.2,419.4,147.6z"/>
	<path d="M491.7,103.4h15.1l1.3,12.6h0.5c5.2-9.2,12.7-14.3,20-14.3c4,0,6.2,0.6,8.3,1.6l-3.3,16.1c-2.4-0.8-4.5-1.1-7.3-1.1
		c-5.6,0-12.2,3.7-16.2,13.8v42.1h-18.3V103.4z"/>
	<path d="M533.5,154.9c0-15.1,12.2-23,40.7-26.1c-0.3-7-3.3-12.2-11.9-12.2c-6.5,0-12.9,2.9-19.4,6.7l-6.7-12.2
		c8.3-5.2,18.4-9.4,29.6-9.4c18,0,27.2,10.6,27.2,31.2v41.3h-15.4l-1.4-7.6h-0.3c-6.2,5.2-13.2,9.4-21.3,9.4
		C541.9,175.9,533.5,166.8,533.5,154.9z M574.2,154.4v-14.3c-17.2,2.2-22.9,7-22.9,13.2c0,5.6,4,7.9,9.4,7.9
		C565.9,161.2,569.7,158.9,574.2,154.4z"/>
	<path d="M606,154.2V73.3h18.4V155c0,4.1,2.1,5.6,3.8,5.6c0.8,0,1.3,0,2.5-0.3l2.2,13.8c-2.1,1-5.2,1.6-9.5,1.6
		C610.6,175.9,606,167.4,606,154.2z"/>
	<path d="M708.3,150.1H678l-6.5,24h-18.9l29.9-93.5h21.9l30,93.3h-19.6L708.3,150.1z M704.2,135.6l-2.7-10.2
		c-2.9-9.7-5.4-20.5-8.3-30.5h-0.5c-2.4,10.2-5.2,20.8-7.9,30.5l-2.7,10.2L704.2,135.6L704.2,135.6z"/>
	<path d="M733.8,138.8c0-23.5,16.8-37.2,36.1-37.2c8.7,0,15.4,3.3,20.5,7.8l-8.9,11.9c-3.5-3-6.8-4.6-10.8-4.6
		c-10.6,0-18.1,8.7-18.1,22.1c0,13.2,7.3,21.8,17.5,21.8c5.1,0,9.9-2.4,13.8-5.7l7.3,12.2c-6.7,5.9-15.3,8.6-23,8.6
		C748.7,175.9,733.8,162.2,733.8,138.8z"/>
	<path d="M800.2,149.3V118h-10v-13.8l10.8-1l2.2-18.8h15.6v18.9h17.5V118h-17.5v31.3c0,8.1,3.3,11.9,9.5,11.9c2.2,0,5.1-0.8,7-1.6
		l3,13.5c-3.8,1.3-8.7,2.7-14.9,2.7C806.6,175.9,800.2,165.2,800.2,149.3z"/>
	<path d="M843.1,81.9c0-6,4.6-10.2,11.1-10.2c6.4,0,11,4,11,10.2c0,5.9-4.6,10.2-11,10.2C847.7,92.1,843.1,87.8,843.1,81.9z
		 M844.9,103.4h18.4v70.7h-18.4V103.4z"/>
	<path d="M873.2,138.8c0-23.5,16.2-37.2,34-37.2c17.6,0,34,13.7,34,37.2c0,23.4-16.2,37-34,37C889.4,175.9,873.2,162.2,873.2,138.8z
		 M922.1,138.8c0-13.4-5.4-22.1-14.9-22.1c-9.5,0-14.9,8.7-14.9,22.1c0,13.2,5.4,21.8,14.9,21.8
		C916.7,160.8,922.1,152.2,922.1,138.8z"/>
	<path d="M950.9,103.4H966l1.3,9.4h0.5c6.2-6,13.4-11.1,22.9-11.1c15.3,0,21.8,10.6,21.8,28.5v44H994v-41.8c0-10.8-3-14.8-10-14.8
		c-5.9,0-9.5,2.7-14.8,7.9v48.6h-18.4v-70.7H950.9z"/>
</g>
</svg>
