<?xml version="1.0" encoding="utf-8"?>
<!-- Generator: Adobe Illustrator 21.1.0, SVG Export Plug-In . SVG Version: 6.00 Build 0)  -->
<svg version="1.1" id="Layer_1" xmlns="http://www.w3.org/2000/svg" xmlns:xlink="http://www.w3.org/1999/xlink" x="0px" y="0px"
	 viewBox="0 0 241 247.5" style="enable-background:new 0 0 241 247.5;" xml:space="preserve">
<style type="text/css">
	.st0{display:none;fill:#FFFFFF;}
	.st1{fill:none;stroke:#FFFFFF;stroke-width:14.332;}
	.st2{fill:none;stroke:#13FD79;stroke-width:4;}
	.st3{fill:#17FDB9;}
	.st4{fill:url(#SVGID_1_);}
	.st5{fill:url(#SVGID_2_);}
	.st6{fill:url(#SVGID_3_);}
</style>
<circle class="st0" cx="98.8" cy="111.9" r="42.5"/>
<path class="st1" d="M51.9,67.8C48,68.3,44.3,69,41,69.7c-8.5,1.8-11.7,4.7-14.5,3.8c-2-0.7-2.1-6.9-4.7-15.5
	c-3-10.2-6.7-22.8-8.3-28.9C12,23.1,6.1,8.8,7.3,7.7c1.8-1.6,12,0.5,26.9,3c4.9,0.8,10,1.8,15.2,3c14.5,3.5,29,10.6,36.1,13.8
	C121.9,43.7,160,88.2,160,88.2s-15.7-7.9-33.4-13.5c-16.1-5.1-33.9-8.1-42.2-8.2C77.3,66.4,63.6,66.2,51.9,67.8z"/>
<path class="st1" d="M159.8,88.9c1.4-3.7,2.5-7.2,3.4-10.5c2.4-8.4,1.4-12.5,3.5-14.5c1.6-1.5,7.1,1.4,15.9,3.2
	c10.4,2.2,23.3,4.8,29.4,6.3c6,1.4,21.4,3,21.7,4.6c0.6,2.4-6.2,10.3-15.4,22.3c-3,3.9-6.3,8-9.9,12c-9.9,11.1-23.1,20.5-29.2,25.3
	c-31.5,24.3-88.7,36.9-88.7,36.9s14.4-10.1,27.7-23c12.2-11.8,23.2-26,27.2-33.3C149,112,155.7,100,159.8,88.9z"/>
<path class="st1" d="M85.7,170.3c2.6,3,5.1,5.7,7.5,8.1c6.2,6.2,10.3,7.2,11.1,10.1c0.5,2.1-4.7,5.5-10.5,12.4
	c-6.9,8.1-15.5,18.1-19.7,22.7c-4.2,4.5-12.9,17.3-14.5,16.8c-2.4-0.7-6.1-10.4-12.2-24.2c-2-4.5-4-9.4-5.7-14.4
	c-5-14.1-6.9-30.1-8.1-37.8C27.5,124.7,44,68.5,44,68.5s1.9,17.5,6.8,35.4c4.4,16.3,11.6,32.8,16.1,39.9
	C70.7,149.7,78,161.3,85.7,170.3z"/>
<circle class="st2" cx="98.8" cy="111.9" r="32.6"/>
<circle class="st3" cx="99.3" cy="111.9" r="22.7"/>
<linearGradient id="SVGID_1_" gradientUnits="userSpaceOnUse" x1="98.9013" y1="201.149" x2="5.4226" y2="107.6702">
	<stop  offset="0" style="stop-color:#11E1E6"/>
	<stop  offset="1" style="stop-color:#0585C6"/>
</linearGradient>
<path class="st4" d="M86,170.4c9.1,10.6,18.5,18.2,18.5,18.2l-44.9,51.8c0,0-10.7-18.3-17.8-38.7c-4.9-14.1-6.8-30.1-8-37.8
	c-6-39.3,10.7-95.5,10.7-95.5s1.9,17.5,6.7,35.4c4.4,16.3,11.5,32.9,15.9,39.9C71.1,149.8,78.3,161.4,86,170.4z"/>
<linearGradient id="SVGID_2_" gradientUnits="userSpaceOnUse" x1="215.0186" y1="60.3475" x2="95.2686" y2="180.0975">
	<stop  offset="0" style="stop-color:#1DFDB7"/>
	<stop  offset="1" style="stop-color:#0CC431"/>
</linearGradient>
<path class="st5" d="M159,89.1c4.9-13.1,7-25,7-25l67,14.2c0,0-10.9,18.2-25.2,34.2c-10,11.1-23.1,20.5-29.2,25.3
	c-31.5,24.2-88.7,36.8-88.7,36.8s14.4-10.1,27.8-23c12.2-11.7,23.2-26,27.2-33.3C148.2,112.2,154.9,100.2,159,89.1z"/>
<linearGradient id="SVGID_3_" gradientUnits="userSpaceOnUse" x1="7.3422" y1="47.9755" x2="160.0033" y2="47.9755">
	<stop  offset="0" style="stop-color:#022E4E"/>
	<stop  offset="1" style="stop-color:#00101B"/>
</linearGradient>
<path class="st6" d="M51.9,67.8c-13.8,1.9-25.3,5.7-25.3,5.7L7.3,7.7c0,0,21.2,1,42.1,6c14.5,3.5,29,10.6,36.1,13.8
	C121.9,43.7,160,88.2,160,88.2s-15.7-7.9-33.4-13.5c-16.1-5.1-33.9-8.1-42.2-8.2C77.3,66.4,63.6,66.2,51.9,67.8z"/>
</svg>
